<svg width="216" height="41" viewBox="0 0 216 41" fill="none" xmlns="http://www.w3.org/2000/svg">
<path d="M196.628 0.555644C194.635 1.26671 193.088 2.4057 191.993 3.77298C189.861 6.43695 189.877 9.66343 191.23 12.5839C192.089 14.4399 193.662 16.0494 195.96 17.0337C197.025 17.4897 199.892 18.3686 202.332 18.9862C206.126 19.7772 209.926 21.984 210.234 22.7834C210.98 24.7196 210.627 26.7797 208.095 27.5799C205.347 28.4487 199.666 27.6415 194.18 26.2891C193.401 26.0968 191.397 25.4897 191.397 25.4897L190.22 30.689C190.22 30.689 194.976 31.9356 197.65 32.4531C198.957 32.706 201.888 33.0692 204.073 32.9886C207.456 32.8637 209.065 32.8628 210.934 31.9522C212.818 31.0348 214.286 29.7158 215.255 28.192C216.387 25.6399 216.099 22.409 215.255 19.998C214.419 18.1647 213.059 17.1732 210.234 16.0009C208.341 15.215 205.73 14.439 202.041 13.487C196.566 12.0745 194.078 9.31655 196.367 6.60779C198.456 4.39222 205.314 4.29622 211.08 6.00821C211.756 6.35617 214.46 7.40719 214.46 7.40719L215.687 2.72023C215.687 2.72023 214.906 2.35107 211.851 1.19245C208.796 0.0338295 199.925 -0.47208 196.628 0.555644Z" fill="#656565"/>
<path fill-rule="evenodd" clip-rule="evenodd" d="M56 16.5995V32.6412H59.0627H62.1258L62.2274 21.999L62.2841 17.6872L56 10.4302V16.5995ZM66.645 16.6667L62.3295 11.3565L56 3.67509V0.557748L58.5893 0.56615L61.1786 0.574553L69.8097 11.1594L78.4408 21.7443L78.5428 11.151L78.6449 0.557748H81.7076H84.7703V16.5995V32.6412L82.1809 32.619L79.5916 32.5969L70.9605 21.9769L66.645 16.6667ZM93.2095 16.5995V19.2908H99.3472H107.211H115.075V16.4085V13.5261H107.211H99.3472H93.2095V16.5995ZM99.3472 26.8765H93.2095V32.6412H105.485H117.76V30.1585V26.8765H108.554H99.3472ZM108.17 6.32245H99.3472H93.2095V0.557748H105.101H116.993V3.04039V6.32245H108.17ZM124.281 16.5995V32.6412H127.35H130.021V28.0578V23.4745V18.1272V11.7743V5.42182H134.927C138.871 5.56352 140.302 5.79566 141.493 6.40792C143.636 7.50907 144.598 9.39558 144.598 11.7919C144.598 14.448 143.614 16.1965 141.516 17.2679C140.029 18.0268 139.26 18.1272 134.927 18.1272L138.407 23.4745L141.599 28.054L144.79 32.6339L147.955 32.6373C149.696 32.6396 151.12 32.5396 151.12 32.4154C151.12 32.2917 149.548 29.9607 147.627 27.2363C145.705 24.5115 144.195 22.2366 144.27 22.1808C144.345 22.1251 145.011 21.7179 145.749 21.276C149.142 19.2456 150.277 16.0538 150.326 12.0161C150.368 8.52648 149.672 5.95387 147.091 3.69237C144.031 1.00997 141.866 0.557748 132.091 0.557748H124.281V16.5995ZM157.257 16.6285V32.6992H165.351C169.923 32.8344 174.054 32.3559 175.9 31.6122C183.242 28.6533 185.869 23.3847 185.494 15.5739C185.361 12.7976 185.118 11.7377 184.132 9.64117C182.089 5.29425 179.287 2.45105 174.183 1.12761C172.547 0.703269 170.921 0.557748 164.409 0.557748H157.257V16.6285ZM171.206 5.9405C173.516 6.34049 174.807 6.76524 176.684 8.40646C179.075 10.4965 179.995 12.4515 179.996 16.5995C179.997 20.5992 179.281 22.0661 177.082 24.3948C174.613 27.0092 170.271 27.7751 165.635 27.596C164.792 27.5635 163.087 27.3926 163.087 27.3926V16.9867V5.80835C165.55 5.6085 168.135 5.40865 171.206 5.9405Z" fill="#656565"/>
<path d="M12.096 33.224C10.6453 33.224 9.35467 32.904 8.224 32.264C7.09333 31.624 6.19733 30.664 5.536 29.384C4.896 28.0827 4.576 26.44 4.576 24.456C4.576 22.4507 4.90667 20.808 5.568 19.528C6.25067 18.248 7.15733 17.2987 8.288 16.68C9.44 16.04 10.7093 15.72 12.096 15.72C13.7813 15.72 15.264 16.0827 16.544 16.808C17.8453 17.5333 18.8693 18.5467 19.616 19.848C20.384 21.1493 20.768 22.6853 20.768 24.456C20.768 26.2267 20.384 27.7627 19.616 29.064C18.8693 30.3653 17.8453 31.3893 16.544 32.136C15.264 32.8613 13.7813 33.224 12.096 33.224ZM2.624 33V9.256H6.624V19.88L6.304 24.424L6.432 28.968V33H2.624ZM11.648 29.8C12.608 29.8 13.4613 29.5867 14.208 29.16C14.976 28.7333 15.584 28.1147 16.032 27.304C16.48 26.4933 16.704 25.544 16.704 24.456C16.704 23.3467 16.48 22.3973 16.032 21.608C15.584 20.7973 14.976 20.1787 14.208 19.752C13.4613 19.3253 12.608 19.112 11.648 19.112C10.688 19.112 9.824 19.3253 9.056 19.752C8.288 20.1787 7.68 20.7973 7.232 21.608C6.784 22.3973 6.56 23.3467 6.56 24.456C6.56 25.544 6.784 26.4933 7.232 27.304C7.68 28.1147 8.288 28.7333 9.056 29.16C9.824 29.5867 10.688 29.8 11.648 29.8ZM27.1008 39.432C26.2688 39.432 25.4368 39.2933 24.6048 39.016C23.7728 38.7387 23.0794 38.3547 22.5248 37.864L24.1248 34.92C24.5301 35.2827 24.9888 35.5707 25.5008 35.784C26.0128 35.9973 26.5354 36.104 27.0688 36.104C27.7941 36.104 28.3808 35.9227 28.8288 35.56C29.2768 35.1973 29.6928 34.5893 30.0768 33.736L31.0688 31.496L31.3888 31.016L37.8528 15.912H41.6928L33.6928 34.376C33.1594 35.656 32.5621 36.6693 31.9008 37.416C31.2608 38.1627 30.5354 38.6853 29.7248 38.984C28.9354 39.2827 28.0608 39.432 27.1008 39.432ZM30.6208 33.608L22.9088 15.912H27.0688L33.3408 30.664L30.6208 33.608Z" fill="#656565"/>
</svg>
