<svg width="64" height="64" viewBox="0 0 64 64" fill="none" xmlns="http://www.w3.org/2000/svg">
<g clip-path="url(#clip0_113_170)">
<path d="M32 6.18389C40.4083 6.18389 41.4041 6.21601 44.725 6.36751C47.7953 6.50764 49.4625 7.02051 50.5723 7.45176C51.94 7.95658 53.1773 8.76151 54.193 9.80739C55.2389 10.8231 56.0438 12.0604 56.5486 13.4281C56.9799 14.5378 57.4929 16.2051 57.6329 19.2754C57.7844 22.596 57.8165 23.5919 57.8165 32.0004C57.8165 40.4089 57.7844 41.4045 57.6329 44.7254C57.4928 47.7956 56.9798 49.4629 56.5486 50.5726C56.0247 51.9307 55.2223 53.1641 54.193 54.1934C53.1637 55.2227 51.9304 56.0251 50.5723 56.549C49.4626 56.9803 47.7953 57.4933 44.725 57.6333C41.405 57.7848 40.4091 57.8169 32 57.8169C23.5909 57.8169 22.5954 57.7848 19.275 57.6333C16.2048 57.4931 14.5375 56.9801 13.4278 56.549C12.06 56.0442 10.8228 55.2393 9.80701 54.1934C8.76114 53.1776 7.95621 51.9404 7.45139 50.5726C7.02014 49.463 6.50714 47.7956 6.36714 44.7254C6.21564 41.4049 6.18351 40.4089 6.18351 32.0004C6.18351 23.5919 6.21564 22.5963 6.36714 19.2754C6.50726 16.2051 7.02014 14.5379 7.45139 13.4281C7.95626 12.0603 8.76128 10.823 9.80726 9.80726C10.823 8.76139 12.0603 7.95646 13.428 7.45164C14.5376 7.02039 16.205 6.50739 19.2753 6.36739C22.5959 6.21589 23.5918 6.18376 32.0003 6.18376M32.0003 0.509888C23.448 0.509888 22.3753 0.546138 19.017 0.699388C15.6651 0.852388 13.3761 1.38464 11.3731 2.16314C9.27196 2.95384 7.36855 4.19336 5.79564 5.79526C4.19338 7.36808 2.95351 9.2715 2.16251 11.3728C1.38464 13.3759 0.852388 15.6649 0.700013 19.0168C0.546138 22.375 0.509888 23.4478 0.509888 32C0.509888 40.5523 0.546138 41.625 0.700013 44.9833C0.853013 48.3351 1.38526 50.6241 2.16376 52.6271C2.95447 54.7283 4.19399 56.6317 5.79589 58.2046C7.3688 59.8065 9.27221 61.0461 11.3734 61.8368C13.3765 62.6153 15.6655 63.1475 19.0173 63.3005C22.376 63.4538 23.4484 63.49 32.0005 63.49C40.5526 63.49 41.6255 63.4538 44.9838 63.3005C48.3356 63.1475 50.6246 62.6153 52.6276 61.8368C54.7195 61.0277 56.6192 59.7906 58.2052 58.2047C59.7911 56.6187 61.0282 54.719 61.8373 52.6271C62.6158 50.624 63.148 48.335 63.301 44.9833C63.4543 41.6245 63.4905 40.5521 63.4905 32C63.4905 23.4479 63.4543 22.375 63.301 19.0168C63.148 15.6649 62.6158 13.3759 61.8373 11.3729C61.0466 9.27171 59.807 7.3683 58.2051 5.79539C56.6322 4.19317 54.7286 2.95338 52.6273 2.16251C50.6241 1.38464 48.3351 0.852388 44.9833 0.700013C41.625 0.546138 40.5523 0.509888 32 0.509888H32.0003Z" fill="#F5F5F5"/>
<path d="M32 15.8293C28.8017 15.8293 25.6753 16.7777 23.0161 18.5546C20.3568 20.3314 18.2842 22.8569 17.0603 25.8117C15.8364 28.7665 15.5161 32.0179 16.1401 35.1547C16.764 38.2915 18.3041 41.1728 20.5656 43.4343C22.8271 45.6958 25.7085 47.2359 28.8452 47.8599C31.982 48.4838 35.2334 48.1636 38.1882 46.9397C41.143 45.7158 43.6685 43.6431 45.4454 40.9839C47.2222 38.3246 48.1706 35.1982 48.1706 32C48.1706 27.7113 46.4669 23.5982 43.4343 20.5656C40.4018 17.533 36.2887 15.8293 32 15.8293ZM32 42.4966C29.9239 42.4966 27.8945 41.8809 26.1684 40.7275C24.4423 39.5741 23.0969 37.9348 22.3025 36.0168C21.508 34.0988 21.3002 31.9882 21.7052 29.9521C22.1102 27.916 23.1099 26.0457 24.5779 24.5777C26.0459 23.1097 27.9162 22.11 29.9524 21.705C31.9885 21.3 34.099 21.5079 36.017 22.3024C37.935 23.0968 39.5744 24.4422 40.7277 26.1684C41.8811 27.8945 42.4967 29.9239 42.4967 32C42.4967 34.7839 41.3908 37.4537 39.4223 39.4222C37.4537 41.3907 34.7839 42.4966 32 42.4966Z" fill="#F5F5F5"/>
<path d="M48.8095 18.9692C50.8965 18.9692 52.5883 17.2774 52.5883 15.1905C52.5883 13.1035 50.8965 11.4117 48.8095 11.4117C46.7226 11.4117 45.0308 13.1035 45.0308 15.1905C45.0308 17.2774 46.7226 18.9692 48.8095 18.9692Z" fill="#F5F5F5"/>
</g>
<defs>
<clipPath id="clip0_113_170">
<rect width="64" height="64" fill="white"/>
</clipPath>
</defs>
</svg>
