<svg width="364" height="52" viewBox="0 0 364 52" fill="none" xmlns="http://www.w3.org/2000/svg">
<g clip-path="url(#clip0_32_28)">
<path d="M249.32 32V22.2C249.32 21.88 249.28 21.62 249.2 21.42C249.12 21.22 249.013 21.06 248.88 20.94C248.76 20.82 248.62 20.74 248.46 20.7C248.3 20.66 248.14 20.64 247.98 20.64V20.02H256C255.867 20.4867 255.747 20.9 255.64 21.26C255.533 21.6067 255.413 22 255.28 22.44L254.68 22.26C254.72 22.1267 254.74 21.9933 254.74 21.86C254.74 21.7133 254.7 21.5933 254.62 21.5C254.54 21.3933 254.413 21.3067 254.24 21.24C254.067 21.1733 253.827 21.14 253.52 21.14H250.98V25.38H253.18C253.5 25.38 253.753 25.36 253.94 25.32C254.14 25.28 254.293 25.2267 254.4 25.16C254.507 25.08 254.587 24.9867 254.64 24.88C254.707 24.7733 254.76 24.6467 254.8 24.5L255.4 24.68C255.24 25.2267 255.087 25.7467 254.94 26.24C254.793 26.7333 254.64 27.2533 254.48 27.8L253.86 27.62C253.953 27.34 253.947 27.0867 253.84 26.86C253.733 26.62 253.413 26.5 252.88 26.5H250.98V30.88H254.14C254.46 30.88 254.713 30.86 254.9 30.82C255.1 30.78 255.253 30.7267 255.36 30.66C255.467 30.58 255.547 30.4867 255.6 30.38C255.667 30.2733 255.72 30.1467 255.76 30L256.36 30.18C256.293 30.4467 256.207 30.7533 256.1 31.1C255.993 31.4467 255.907 31.7467 255.84 32H249.32ZM260.299 32V22.2C260.299 21.88 260.259 21.62 260.179 21.42C260.099 21.22 259.992 21.06 259.859 20.94C259.739 20.82 259.599 20.74 259.439 20.7C259.279 20.66 259.119 20.64 258.959 20.64V20.02H264.279C265.172 20.02 266.006 20.1533 266.779 20.42C267.566 20.6867 268.246 21.0733 268.819 21.58C269.392 22.0733 269.839 22.68 270.159 23.4C270.492 24.1067 270.659 24.9067 270.659 25.8C270.659 26.5733 270.532 27.3333 270.279 28.08C270.039 28.8267 269.659 29.4933 269.139 30.08C268.619 30.6533 267.946 31.12 267.119 31.48C266.306 31.8267 265.332 32 264.199 32H260.299ZM261.959 21.12V30.9H263.419C264.419 30.9 265.252 30.7933 265.919 30.58C266.599 30.3667 267.139 30.0467 267.539 29.62C267.952 29.1933 268.246 28.6667 268.419 28.04C268.606 27.4 268.699 26.6533 268.699 25.8C268.699 24.8267 268.559 24.04 268.279 23.44C268.012 22.8267 267.632 22.3533 267.139 22.02C266.646 21.6733 266.052 21.44 265.359 21.32C264.666 21.1867 263.899 21.12 263.059 21.12H261.959ZM279.812 32.18C279.078 32.18 278.412 32.0867 277.812 31.9C277.212 31.7 276.692 31.4133 276.252 31.04C275.825 30.6533 275.492 30.18 275.252 29.62C275.012 29.0467 274.892 28.3933 274.892 27.66V22.18C274.892 21.8733 274.852 21.6333 274.772 21.46C274.705 21.2733 274.605 21.14 274.472 21.06C274.352 20.9667 274.212 20.9133 274.052 20.9C273.892 20.8733 273.725 20.86 273.552 20.86V20.24C274.098 20.1867 274.612 20.14 275.092 20.1C275.585 20.0467 276.085 19.9867 276.592 19.92V27.46C276.592 28.6733 276.865 29.5733 277.412 30.16C277.972 30.7467 278.772 31.04 279.812 31.04C280.838 31.04 281.645 30.74 282.232 30.14C282.818 29.54 283.112 28.6733 283.112 27.54V20.12L284.812 19.92V27.66C284.812 28.42 284.685 29.08 284.432 29.64C284.178 30.2 283.825 30.6733 283.372 31.06C282.932 31.4333 282.405 31.7133 281.792 31.9C281.192 32.0867 280.532 32.18 279.812 32.18ZM295.157 32.18C294.277 32.18 293.451 32.0267 292.677 31.72C291.917 31.4 291.251 30.9667 290.677 30.42C290.117 29.8733 289.671 29.2333 289.337 28.5C289.017 27.7533 288.857 26.9467 288.857 26.08C288.857 25.1733 289.017 24.34 289.337 23.58C289.657 22.8067 290.097 22.14 290.657 21.58C291.231 21.02 291.904 20.58 292.677 20.26C293.451 19.94 294.291 19.78 295.197 19.78C296.011 19.78 296.724 19.8733 297.337 20.06C297.964 20.2467 298.597 20.5067 299.237 20.84C299.171 21.0533 299.111 21.2467 299.057 21.42C299.004 21.58 298.944 21.7733 298.877 22C298.291 21.6533 297.711 21.3867 297.137 21.2C296.564 21 295.917 20.9 295.197 20.9C294.597 20.9 294.031 21.0133 293.497 21.24C292.977 21.4533 292.517 21.7733 292.117 22.2C291.717 22.6133 291.404 23.1333 291.177 23.76C290.951 24.3733 290.837 25.0867 290.837 25.9C290.837 26.82 290.964 27.6133 291.217 28.28C291.471 28.9333 291.797 29.4733 292.197 29.9C292.611 30.3133 293.077 30.62 293.597 30.82C294.117 31.0067 294.637 31.1 295.157 31.1C295.824 31.1 296.504 30.98 297.197 30.74C297.891 30.5 298.557 30.1267 299.197 29.62C299.277 29.7933 299.337 29.9667 299.377 30.14C299.431 30.3 299.491 30.4733 299.557 30.66C298.824 31.2733 298.097 31.68 297.377 31.88C296.671 32.08 295.931 32.18 295.157 32.18ZM309.222 27.78H305.242L303.662 31.9L302.442 32.12L306.142 21.86C306.222 21.6067 306.222 21.4067 306.142 21.26C306.075 21.1133 305.962 21 305.802 20.92C305.655 20.84 305.482 20.7867 305.282 20.76C305.082 20.7333 304.902 20.72 304.742 20.72V20.1C305.435 20.02 305.935 19.9667 306.242 19.94C306.562 19.9133 306.795 19.8867 306.942 19.86C307.089 19.8333 307.215 19.8133 307.322 19.8C307.442 19.7733 307.662 19.7333 307.982 19.68L312.602 31.9L310.842 32.1L309.222 27.78ZM305.622 26.64H308.842L307.162 22.24L305.622 26.64ZM323.62 22.1C323.62 22.06 323.633 21.9667 323.66 21.82C323.687 21.66 323.673 21.5467 323.62 21.48C323.593 21.44 323.52 21.4 323.4 21.36C323.293 21.32 323.093 21.3 322.8 21.3H320.96V31.9L319.34 32.1V21.3H317.84C317.453 21.3 317.147 21.3133 316.92 21.34C316.693 21.3533 316.513 21.3933 316.38 21.46C316.26 21.5133 316.173 21.5933 316.12 21.7C316.067 21.7933 316.013 21.92 315.96 22.08L315.36 21.9C315.413 21.74 315.467 21.5667 315.52 21.38C315.587 21.18 315.647 20.9933 315.7 20.82C315.753 20.6333 315.8 20.4733 315.84 20.34C315.88 20.1933 315.907 20.0867 315.92 20.02H324.82L324.24 21.92L323.62 22.1ZM328.983 22.18C328.983 21.8733 328.943 21.6333 328.863 21.46C328.783 21.2733 328.676 21.14 328.543 21.06C328.423 20.9667 328.283 20.9133 328.123 20.9C327.963 20.8733 327.796 20.86 327.623 20.86V20.24L329.883 20C330.016 19.9867 330.116 19.98 330.183 19.98C330.263 19.9667 330.423 19.9467 330.663 19.92V31.9L328.983 32.1V22.18ZM341.305 32.24C340.159 32.24 339.179 32.0333 338.365 31.62C337.552 31.1933 336.885 30.6733 336.365 30.06C335.845 29.4333 335.459 28.76 335.205 28.04C334.965 27.3067 334.845 26.6333 334.845 26.02C334.845 25.3267 334.979 24.6133 335.245 23.88C335.525 23.1467 335.932 22.48 336.465 21.88C337.012 21.2667 337.685 20.7667 338.485 20.38C339.299 19.98 340.239 19.78 341.305 19.78C342.399 19.78 343.345 19.98 344.145 20.38C344.959 20.78 345.632 21.2867 346.165 21.9C346.699 22.5133 347.099 23.1867 347.365 23.92C347.632 24.6533 347.765 25.3533 347.765 26.02C347.765 26.7 347.632 27.4067 347.365 28.14C347.099 28.8733 346.699 29.5467 346.165 30.16C345.632 30.76 344.959 31.26 344.145 31.66C343.345 32.0467 342.399 32.24 341.305 32.24ZM341.305 20.86C340.652 20.86 340.052 20.9667 339.505 21.18C338.959 21.3933 338.485 21.72 338.085 22.16C337.685 22.5867 337.372 23.1267 337.145 23.78C336.932 24.42 336.825 25.1667 336.825 26.02C336.825 26.82 336.925 27.54 337.125 28.18C337.339 28.8067 337.639 29.3467 338.025 29.8C338.425 30.24 338.899 30.58 339.445 30.82C340.005 31.0467 340.625 31.16 341.305 31.16C341.945 31.16 342.539 31.0667 343.085 30.88C343.632 30.6933 344.105 30.4 344.505 30C344.905 29.5867 345.219 29.0533 345.445 28.4C345.672 27.7467 345.785 26.9533 345.785 26.02C345.785 25.1667 345.679 24.42 345.465 23.78C345.252 23.1267 344.945 22.5867 344.545 22.16C344.159 21.72 343.692 21.3933 343.145 21.18C342.599 20.9667 341.985 20.86 341.305 20.86ZM361.01 20.12L362.19 19.92V31.9L361.11 32.1L353.31 22.68V31.9L352.17 32.12V22.16C352.17 21.8533 352.13 21.6133 352.05 21.44C351.983 21.2667 351.89 21.14 351.77 21.06C351.65 20.98 351.51 20.9333 351.35 20.92C351.203 20.9067 351.043 20.9 350.87 20.9V20.3C351.243 20.2333 351.61 20.1733 351.97 20.12C352.343 20.0667 352.717 20 353.09 19.92L361.03 29.46L361.01 20.12Z" fill="#F5F5F5"/>
<path d="M166.758 26H171.374C171.374 26 171.374 33.5 171.374 35.2308C171.374 36.9615 172.493 38.5455 174.836 38.6923C177.144 38.6923 178.875 37.5385 178.875 34.0769C179.452 27.1538 167.109 21.6236 166.758 13.8846C166.758 9.84615 170.22 6.38461 174.836 6.38463C179.452 6.38464 182.337 8.11538 182.337 12.7308C182.337 17.3462 182.337 19.0769 182.337 19.0769H178.298C178.298 19.0769 178.298 14.4615 178.298 12.7308C178.298 11 176.326 10.4107 174.836 10.4231C172.861 10.5496 172.018 11.1181 171.374 13.8846C171.232 18.4187 182.918 24.6327 182.914 34.0769C182.914 38.6923 180.029 43.3077 175.413 43.3077C170.797 43.3077 166.758 39.8462 166.758 35.2308V26Z" fill="#F5F5F5"/>
<path d="M187.531 42.1539V6.38463H193.301V21.3846L200.225 6.38463H205.418L197.917 23.1154L207.149 42.1539H201.956L193.301 24.8462V42.1539H187.531Z" fill="#F5F5F5"/>
<path d="M214.073 42.1539H219.844V29.4615L226.768 6.38463H222.152L216.958 23.6923L211.765 6.38463H207.149L214.073 29.4615V42.1539Z" fill="#F5F5F5"/>
<path d="M233.692 56H236V-4H233.692V56Z" fill="#F5F5F5"/>
<path d="M151.178 42.1539H157.526L164.45 6.38463H158.68L154.641 31.7692L150.601 6.38463H144.831L151.178 42.1539Z" fill="#F5F5F5"/>
<path fill-rule="evenodd" clip-rule="evenodd" d="M124.059 12.1539C124.059 8.83354 128.321 6.40919 133.291 6.38463C138.261 6.36007 142.523 8.71111 142.523 12.1539V36.3846C142.523 39.2692 138.575 42.2891 133.291 42.1539C128.007 42.0186 124.059 39.2692 124.059 36.3846V12.1539ZM129.829 24.8462C129.829 13.8846 129.829 11 133.291 11C136.753 11 136.753 12.7308 136.753 24.8462C136.753 36.9615 136.753 37.5385 133.291 37.5385C129.829 37.5385 129.829 35.8077 129.829 24.8462Z" fill="#F5F5F5"/>
<path fill-rule="evenodd" clip-rule="evenodd" d="M102.709 42.1539L103.286 6.38463C103.286 6.38463 111.941 5.8077 114.826 6.96155C117.711 8.1154 120.02 9.84617 120.02 15.6154C120.02 21.3846 117.327 22.3462 115.403 23.6923L122.905 42.1539H117.134L110.21 23.6923H107.902V42.1539H102.709ZM107.902 11V20.2308H107.933C110.065 20.2309 114.826 20.2312 114.826 15.6154C114.826 11 110.403 11 107.902 11Z" fill="#F5F5F5"/>
<path fill-rule="evenodd" clip-rule="evenodd" d="M79.6284 42.1539L85.9756 6.38463H95.2078L100.401 42.1539H95.2078L94.0538 35.2308H85.9756L84.8215 42.1539H79.6284ZM90.5917 12.7308L87.7066 30.0385H93.4768L90.5917 12.7308Z" fill="#F5F5F5"/>
<path d="M59.4328 42.1539V6.38463H65.2029V21.3846L72.1271 6.38463H77.3203L69.8191 23.1154L79.0513 42.1539H73.8582L65.2029 24.8462V42.1539H59.4328Z" fill="#F5F5F5"/>
<path fill-rule="evenodd" clip-rule="evenodd" d="M35.7751 42.1539L42.1222 6.38463H51.3545L56.5477 42.1539H51.3545L50.2005 35.2308H42.1222L40.9682 42.1539H35.7751ZM46.1614 13.3077L43.2763 30.6154H49.0465L46.1614 13.3077Z" fill="#F5F5F5"/>
<path d="M0 42.1539H5.77017L10.9633 13.8846L13.8484 42.1539H20.1956L26.5428 13.8846V42.1539H32.313V6.38463H23.6577L17.8875 29.4616L15.5795 6.38463H6.92421L0 42.1539Z" fill="#F5F5F5"/>
</g>
<defs>
<clipPath id="clip0_32_28">
<rect width="364" height="52" fill="white"/>
</clipPath>
</defs>
</svg>
