<svg width="61" height="64" viewBox="0 0 61 64" fill="none" xmlns="http://www.w3.org/2000/svg">
<path d="M45.2911 38.0834C34.2787 38.14 32.4973 45.1001 31.9036 50.9852L31.6337 53.5881H29.4203L29.1504 50.9852C28.5567 45.1001 26.7213 38.14 16.0867 38.0834C14.3053 34.2352 13.5496 31.123 13.5496 27.6146C13.5496 18.8437 20.4054 10.6384 30.5539 10.6384C40.7026 10.6384 47.4504 18.7869 47.4504 27.6714C47.4504 31.123 47.1265 34.2352 45.2911 38.0834ZM30.4461 0C13.7117 0 0 14.3733 0 31.9716C0 49.627 13.7117 64 30.4461 64C47.3423 64 61 49.627 61 31.9716C61 14.3733 47.3423 0 30.4461 0Z" fill="#F5F5F5"/>
</svg>
